<svg xmlns="http://www.w3.org/2000/svg" viewBox="0 0 398.66 352.02"><defs><style>.cls-1{fill:#a62a2a;}.cls-2{fill:#474646;}</style></defs><title>Asset 2</title><g id="Layer_2" data-name="Layer 2"><g id="Layer_1-2" data-name="Layer 1"><path class="cls-1" d="M126.43,8.91c1.61-11,19.15-12.27,21.89-1.18-2,46.86-8.65,93.41-11.26,140.25.11,7.62-7.67,12.33-14.7,10.84a10.28,10.28,0,0,1-7.21-12.21A1121.71,1121.71,0,0,0,126.43,8.91M333.05,71.43c5.72-4.89,15.06-1.6,18.14,4.8,4.53,9.09,9.95,18.11,11.3,28.36,1.47,12.78,1.51,27.35-8,37.31-17.79,18.82-42,30.07-66.3,38-5.35-1.44-11.18-5.77-10.17-12-1.06-5.29,3.51-8.83,7.85-10.55,19.51-5.07,38.67-13.59,53.31-27.77,3.6-3.47,5.85-8.83,4.54-13.81-2.53-10.92-8.31-20.67-13.78-30.31-2.26-4.56-1.43-11.15,3.08-14M87,70.6c6.46-1.1,14.55,1.24,17.79,7.36,3.15,24.85-9.11,48.06-21.67,68.56C71.7,166.1,54.56,181.31,38,196.41c-6.34,5.38-12.56,11-19.79,15.21-4.05,2.41-8.59-.36-12.38-2-7.2-3.72-7.86-15-1.29-19.66,14.27-11.29,27.26-24,39.89-37.12C53.62,142.24,60.75,130.11,67.6,118c7-11.92,8.46-25.89,11.82-39.07C80.21,75,83.49,72.11,87,70.6m181.82,5.62c4.56-6.35,14.78-2.13,16.83,4.39.17,15-4.54,29.93-11.36,43.18a66.68,66.68,0,0,1-37.14,26.57c-11.64,2.53-23.66,1.35-35.47,1.76-10.74,18.55-26.06,33.72-41.79,48-9.37,8-18.26,16.95-29.58,22.16-5.42-2.45-9.79-8.45-8.11-14.59,1.78-7.77,9.91-10.9,15-16.13,14.11-13,29.1-25.68,39.27-42.14-7.78-3.36-14.9-10.52-14.5-19.55-.66-15.75,9.76-28.81,19.32-40.22,6.62-8.59,17.5-15.56,28.74-13C218.2,79,222.67,87.94,223,95.92c-.07,11.63-3.49,23-8.29,33.53,15.85,3.66,35.74-2.87,42.68-18.67,5.82-10.86,3.36-24.74,11.43-34.56M186.9,119.68c-1.6,3.24-3,7.66.7,10,6.24-6.56,9.4-15.93,10.79-24.77a93.07,93.07,0,0,0-11.49,14.74Z"/><path class="cls-2" d="M148.32,7.73c1.59,3.83.42,8.17.64,12.21-3.41,43.62-8.39,87.15-11.1,130.82-1.36,6.84-9,11.07-15.5,8.06,7,1.49,14.81-3.22,14.7-10.84,2.61-46.84,9.22-93.39,11.26-140.25M285.64,80.61c1,3,1.73,6.19.86,9.32-2.7,13.3-5.75,27.11-13.72,38.38-9.68,11.63-23,20.7-38,23.77-10.81,1.32-21.82.85-32.61,1.5-5.47,8.39-10.83,17-17.73,24.29-13.69,14.33-28,28.18-43.92,40-3.16,1.95-6.24,5.12-10.27,4.43,11.32-5.21,20.21-14.18,29.58-22.16,15.73-14.33,31-29.5,41.79-48,11.81-.41,23.83.77,35.47-1.76a66.68,66.68,0,0,0,37.14-26.57c6.82-13.25,11.53-28.18,11.36-43.18m76.85,24c3.75,13.44,1.76,29.58-8.5,39.79-16,16.36-37.2,26.32-58.33,34.38-2.4.71-4.9,2.11-7.44,1.19,24.26-8,48.51-19.23,66.3-38,9.48-10,9.44-24.53,8-37.31M260.86,167.34c4.57-1.29,11.9.54,11.32,6.45-1.33,4.55-1.81,11.18-7.5,12.27-17.27,5.17-35.37,6.41-53.11,9.17-5.41.45-13.61-1.65-13.82-8.28-1.32-9.76,9.53-15,17.77-15.11,15.12-1.44,30.24-2.81,45.34-4.5m-50.21,83c1-2.12,4-.73,5.87-1.07-.93,2.21-4,.74-5.87,1.07m26,0c.85-1.83,5-1.84,5.81,0-1.94.05-3.88,0-5.81,0M398,261.44l.25.91c.09.45.29,1.35.38,1.81.07,3.16-.42,6.31-.54,9.47-2.64,27-9.05,54.35-21.89,78.39,5.45-14.46,11.36-28.83,14.86-43.93A218.16,218.16,0,0,0,397,272.2c.24-3.6.66-7.18,1-10.76Z"/></g></g></svg>